<svg width="158" height="137" viewBox="0 0 158 137" fill="none" xmlns="http://www.w3.org/2000/svg">
<path fill-rule="evenodd" clip-rule="evenodd" d="M31.5556 0.722229C26.1628 0.722229 20.991 2.86448 17.1777 6.67772C13.3645 10.491 11.2222 15.6628 11.2222 21.0556V41.3889C11.2222 45.1322 14.2567 48.1667 18 48.1667C21.7433 48.1667 24.7778 45.1322 24.7778 41.3889V21.0556C24.7778 19.258 25.4919 17.534 26.7629 16.2629C28.034 14.9919 29.758 14.2778 31.5556 14.2778H51.8889C55.6322 14.2778 58.6667 11.2433 58.6667 7.50001C58.6667 3.75674 55.6322 0.722229 51.8889 0.722229H31.5556ZM106.111 0.722229C102.368 0.722229 99.3333 3.75674 99.3333 7.50001C99.3333 11.2433 102.368 14.2778 106.111 14.2778H126.444C128.242 14.2778 129.966 14.9919 131.237 16.2629C132.508 17.534 133.222 19.258 133.222 21.0556V41.3889C133.222 45.1322 136.257 48.1667 140 48.1667C143.743 48.1667 146.778 45.1322 146.778 41.3889V21.0556C146.778 15.6628 144.636 10.491 140.822 6.67772C137.009 2.86448 131.837 0.722229 126.444 0.722229H106.111ZM24.7778 95.6111C24.7778 91.8679 21.7433 88.8333 18 88.8333C14.2567 88.8333 11.2222 91.8679 11.2222 95.6111V115.944C11.2222 121.337 13.3645 126.509 17.1777 130.322C20.991 134.136 26.1628 136.278 31.5556 136.278H51.8889C55.6322 136.278 58.6667 133.243 58.6667 129.5C58.6667 125.757 55.6322 122.722 51.8889 122.722H31.5556C29.758 122.722 28.034 122.008 26.7629 120.737C25.4919 119.466 24.7778 117.742 24.7778 115.944V95.6111ZM146.778 95.6111C146.778 91.8679 143.743 88.8333 140 88.8333C136.257 88.8333 133.222 91.8679 133.222 95.6111V115.944C133.222 117.742 132.508 119.466 131.237 120.737C129.966 122.008 128.242 122.722 126.444 122.722H106.111C102.368 122.722 99.3333 125.757 99.3333 129.5C99.3333 133.243 102.368 136.278 106.111 136.278H126.444C131.837 136.278 137.009 134.136 140.822 130.322C144.636 126.509 146.778 121.337 146.778 115.944V95.6111ZM7 60.5C3.41015 60.5 0.5 63.4102 0.5 67C0.5 70.5899 3.41015 73.5 7 73.5H151C154.59 73.5 157.5 70.5899 157.5 67C157.5 63.4102 154.59 60.5 151 60.5H7Z" fill="url(#paint0_linear_153_53)"/>
<defs>
<linearGradient id="paint0_linear_153_53" x1="-0.348074" y1="72.906" x2="142.221" y2="26.2332" gradientUnits="userSpaceOnUse">
<stop stop-color="#FF9966"/>
<stop offset="1" stop-color="#FF5E62"/>
</linearGradient>
</defs>
</svg>
