<svg width="105" height="86" viewBox="0 0 105 86" fill="none" xmlns="http://www.w3.org/2000/svg">
<path d="M5.86447 3.25679C6.00629 1.88338 5.00789 0.655042 3.63448 0.513223C2.26107 0.371403 1.03274 1.3698 0.89092 2.74321L5.86447 3.25679ZM104.573 64.1955C105.234 62.9829 104.786 61.4646 103.573 60.8044L83.8125 50.045C82.5999 49.3847 81.0816 49.8325 80.4214 51.0451C79.7611 52.2577 80.2089 53.776 81.4215 54.4362L98.9866 64.0001L89.4227 81.5652C88.7624 82.7778 89.2102 84.2961 90.4228 84.9563C91.6354 85.6166 93.1537 85.1688 93.8139 83.9562L104.573 64.1955ZM0.89092 2.74321C-0.73394 18.4787 2.33934 40.7602 17.3681 55.8634C32.5669 71.1376 59.2178 78.3357 103.085 65.3979L101.67 60.6021C58.7376 73.2643 34.3051 65.7958 20.9123 52.3366C7.34939 38.7065 4.32267 18.188 5.86447 3.25679L0.89092 2.74321Z" fill="#4D4D4D"/>
</svg>
