<svg width="105" height="107" viewBox="0 0 105 107" fill="none" xmlns="http://www.w3.org/2000/svg">
<path d="M23 108.808C24.6667 86.1418 30.6 35.8084 41 15.8084C51.3958 -4.18343 30.0174 -1.69359 42.9842 18.2841C42.9943 18.2996 42.9983 18.3054 43.0075 18.3215C43.2991 18.8296 52.0251 34.0219 53.5 35.3084C55 36.6169 70.0517 35.6987 71.5 35.3084C73.862 34.6719 81.8032 23.2594 85.0739 18.4343C85.5853 17.6799 86.7605 17.9292 86.9032 18.8294C92.0908 51.542 100.102 112.249 104 113.808" stroke="#4D4D4D" stroke-width="3"/>
<path d="M52.5 53.5C51.5 52 38 51.5 35.5 54C33.5 56 36 61.5 38.5 64C40.3028 65.8028 47 66 49.5 64C51.5 62.4 53.6435 55.2153 52.5 53.5Z" fill="#4D4D4D" stroke="#4D4D4D"/>
<path d="M84.7268 53.25C83.7268 51.75 70.2268 51.25 67.7268 53.75C65.7268 55.75 68.2268 61.25 70.7268 63.75C72.5296 65.5528 79.2268 65.75 81.7268 63.75C83.7268 62.15 85.8703 54.9653 84.7268 53.25Z" fill="#4D4D4D" stroke="#4D4D4D"/>
<path d="M25 56.5L29 58.5L55 58L73.5 57.5H85.5L92.5 56L97 55" stroke="#4D4D4D" stroke-width="3" stroke-linecap="round"/>
<path d="M51.5 69.5C51.5 69.5 52.4995 73.5203 55 73.5C57.0756 73.4831 59 70 59 70C59 70 60.5 74.5 65 74C69.5 73.5 68 70 68 70" stroke="#4D4D4D" stroke-width="3" stroke-linecap="round" stroke-linejoin="round"/>
<path d="M15.5 108C10.5 106.5 10.8333 94.3333 10.5 90L6 89L9.5 87.5H6L4 84L7 87L10.5 84" stroke="#4D4D4D" stroke-width="3" stroke-linecap="round" stroke-linejoin="round"/>
</svg>
