<svg width="19" height="20" viewBox="0 0 19 20" fill="none" xmlns="http://www.w3.org/2000/svg">
<path d="M15.3333 9.5H3.66667C2.74619 9.5 2 10.2462 2 11.1667V17C2 17.9205 2.74619 18.6667 3.66667 18.6667H15.3333C16.2538 18.6667 17 17.9205 17 17V11.1667C17 10.2462 16.2538 9.5 15.3333 9.5Z" stroke="#4D4D4D" stroke-width="2.18182" stroke-linecap="round" stroke-linejoin="round"/>
<path d="M5.33337 9.5V6.16667C5.33337 5.0616 5.77236 4.00179 6.55376 3.22039C7.33516 2.43899 8.39497 2 9.50004 2C10.6051 2 11.6649 2.43899 12.4463 3.22039C13.2277 4.00179 13.6667 5.0616 13.6667 6.16667V9.5" stroke="#4D4D4D" stroke-width="2.18182" stroke-linecap="round" stroke-linejoin="round"/>
</svg>
