<svg width="22" height="22" viewBox="0 0 22 22" fill="none" xmlns="http://www.w3.org/2000/svg">
<path d="M11 13.5C12.3807 13.5 13.5 12.3807 13.5 11C13.5 9.61929 12.3807 8.5 11 8.5C9.61929 8.5 8.5 9.61929 8.5 11C8.5 12.3807 9.61929 13.5 11 13.5Z" stroke="#4D4D4D" stroke-width="2.1" stroke-linecap="round" stroke-linejoin="round"/>
<path d="M17.1667 13.5C17.0557 13.7513 17.0227 14.0302 17.0717 14.3005C17.1207 14.5708 17.2496 14.8203 17.4417 15.0167L17.4917 15.0667C17.6466 15.2215 17.7696 15.4053 17.8534 15.6076C17.9373 15.8099 17.9805 16.0268 17.9805 16.2458C17.9805 16.4649 17.9373 16.6817 17.8534 16.8841C17.7696 17.0864 17.6466 17.2702 17.4917 17.425C17.3369 17.58 17.1531 17.7029 16.9507 17.7868C16.7484 17.8706 16.5315 17.9138 16.3125 17.9138C16.0935 17.9138 15.8766 17.8706 15.6743 17.7868C15.4719 17.7029 15.2881 17.58 15.1333 17.425L15.0833 17.375C14.8869 17.1829 14.6375 17.054 14.3672 17.005C14.0968 16.956 13.818 16.9891 13.5667 17.1C13.3202 17.2056 13.11 17.381 12.9619 17.6046C12.8139 17.8282 12.7344 18.0902 12.7333 18.3583V18.5C12.7333 18.942 12.5577 19.3659 12.2452 19.6785C11.9326 19.9911 11.5087 20.1667 11.0667 20.1667C10.6246 20.1667 10.2007 19.9911 9.88816 19.6785C9.5756 19.3659 9.4 18.942 9.4 18.5V18.425C9.39355 18.1492 9.30427 17.8817 9.14376 17.6573C8.98326 17.4328 8.75895 17.2619 8.5 17.1667C8.24866 17.0557 7.96984 17.0226 7.69951 17.0717C7.42918 17.1207 7.17974 17.2496 6.98334 17.4417L6.93334 17.4917C6.77855 17.6466 6.59473 17.7696 6.3924 17.8534C6.19007 17.9373 5.9732 17.9805 5.75417 17.9805C5.53514 17.9805 5.31827 17.9373 5.11594 17.8534C4.91361 17.7696 4.72979 17.6466 4.575 17.4917C4.42004 17.3369 4.29711 17.1531 4.21324 16.9507C4.12936 16.7484 4.08619 16.5315 4.08619 16.3125C4.08619 16.0935 4.12936 15.8766 4.21324 15.6743C4.29711 15.4719 4.42004 15.2881 4.575 15.1333L4.625 15.0833C4.81712 14.8869 4.94599 14.6375 4.99501 14.3672C5.04402 14.0968 5.01093 13.818 4.9 13.5667C4.79437 13.3202 4.61897 13.11 4.39539 12.9619C4.17182 12.8139 3.90982 12.7344 3.64167 12.7333H3.5C3.05798 12.7333 2.63405 12.5577 2.32149 12.2452C2.00893 11.9326 1.83334 11.5087 1.83334 11.0667C1.83334 10.6246 2.00893 10.2007 2.32149 9.88815C2.63405 9.57559 3.05798 9.4 3.5 9.4H3.575C3.85083 9.39355 4.11834 9.30426 4.34275 9.14376C4.56716 8.98325 4.7381 8.75895 4.83334 8.5C4.94427 8.24865 4.97736 7.96984 4.92834 7.69951C4.87932 7.42918 4.75045 7.17973 4.55834 6.98333L4.50834 6.93333C4.35338 6.77854 4.23044 6.59473 4.14657 6.3924C4.0627 6.19007 4.01952 5.97319 4.01952 5.75417C4.01952 5.53514 4.0627 5.31826 4.14657 5.11593C4.23044 4.9136 4.35338 4.72979 4.50834 4.575C4.66312 4.42004 4.84694 4.29711 5.04927 4.21323C5.2516 4.12936 5.46848 4.08619 5.6875 4.08619C5.90653 4.08619 6.12341 4.12936 6.32574 4.21323C6.52807 4.29711 6.71188 4.42004 6.86667 4.575L6.91667 4.625C7.11307 4.81711 7.36252 4.94599 7.63285 4.995C7.90317 5.04402 8.18199 5.01093 8.43334 4.9H8.5C8.74648 4.79436 8.95668 4.61896 9.10475 4.39539C9.25281 4.17181 9.33227 3.90982 9.33334 3.64167V3.5C9.33334 3.05797 9.50893 2.63405 9.82149 2.32149C10.1341 2.00893 10.558 1.83333 11 1.83333C11.442 1.83333 11.866 2.00893 12.1785 2.32149C12.4911 2.63405 12.6667 3.05797 12.6667 3.5V3.575C12.6677 3.84315 12.7472 4.10515 12.8953 4.32872C13.0433 4.5523 13.2535 4.7277 13.5 4.83333C13.7513 4.94426 14.0302 4.97735 14.3005 4.92834C14.5708 4.87932 14.8203 4.75045 15.0167 4.55833L15.0667 4.50833C15.2215 4.35337 15.4053 4.23044 15.6076 4.14657C15.8099 4.06269 16.0268 4.01952 16.2458 4.01952C16.4649 4.01952 16.6817 4.06269 16.8841 4.14657C17.0864 4.23044 17.2702 4.35337 17.425 4.50833C17.58 4.66312 17.7029 4.84693 17.7868 5.04927C17.8706 5.2516 17.9138 5.46847 17.9138 5.6875C17.9138 5.90652 17.8706 6.1234 17.7868 6.32573C17.7029 6.52806 17.58 6.71188 17.425 6.86667L17.375 6.91667C17.1829 7.11306 17.054 7.36251 17.005 7.63284C16.956 7.90317 16.9891 8.18199 17.1 8.43333V8.5C17.2056 8.74647 17.381 8.95668 17.6046 9.10474C17.8282 9.25281 18.0902 9.33226 18.3583 9.33333H18.5C18.942 9.33333 19.366 9.50893 19.6785 9.82149C19.9911 10.134 20.1667 10.558 20.1667 11C20.1667 11.442 19.9911 11.8659 19.6785 12.1785C19.366 12.4911 18.942 12.6667 18.5 12.6667H18.425C18.1568 12.6677 17.8949 12.7472 17.6713 12.8953C17.4477 13.0433 17.2723 13.2535 17.1667 13.5Z" stroke="#4D4D4D" stroke-width="2.1" stroke-linecap="round" stroke-linejoin="round"/>
</svg>
