<svg width="19" height="19" viewBox="0 0 19 19" fill="none" xmlns="http://www.w3.org/2000/svg">
<path d="M2.375 4.75H3.95833H16.625" stroke="white" stroke-width="1.425" stroke-linecap="round" stroke-linejoin="round"/>
<path d="M15.0417 4.74998V15.8333C15.0417 16.2532 14.8749 16.656 14.578 16.9529C14.281 17.2498 13.8783 17.4166 13.4584 17.4166H5.54171C5.12178 17.4166 4.71905 17.2498 4.42212 16.9529C4.12519 16.656 3.95837 16.2532 3.95837 15.8333V4.74998M6.33337 4.74998V3.16665C6.33337 2.74672 6.50019 2.34399 6.79712 2.04706C7.09405 1.75013 7.49678 1.58331 7.91671 1.58331H11.0834C11.5033 1.58331 11.906 1.75013 12.203 2.04706C12.4999 2.34399 12.6667 2.74672 12.6667 3.16665V4.74998" stroke="white" stroke-width="1.425" stroke-linecap="round" stroke-linejoin="round"/>
<path d="M7.91663 8.70831V13.4583" stroke="white" stroke-width="1.425" stroke-linecap="round" stroke-linejoin="round"/>
<path d="M11.0834 8.70831V13.4583" stroke="white" stroke-width="1.425" stroke-linecap="round" stroke-linejoin="round"/>
</svg>
