<svg width="41" height="39" viewBox="0 0 41 39" fill="none" xmlns="http://www.w3.org/2000/svg">
<path d="M2.75 2C2.75 1.30964 2.19036 0.75 1.5 0.75C0.809644 0.75 0.25 1.30964 0.25 2H2.75ZM39.9819 29.2736C40.4091 28.7313 40.3159 27.9454 39.7736 27.5181L30.9368 20.5558C30.3945 20.1286 29.6086 20.2218 29.1814 20.7641C28.7541 21.3064 28.8474 22.0923 29.3896 22.5196L37.2445 28.7083L31.0558 36.5632C30.6286 37.1055 30.7218 37.8914 31.2641 38.3186C31.8064 38.7459 32.5923 38.6526 33.0196 38.1104L39.9819 29.2736ZM0.25 2C0.25 12.309 3.85062 20.0652 10.6856 24.8257C17.4614 29.5451 27.1906 31.1599 39.1473 29.7413L38.8527 27.2587C27.2094 28.6401 18.1886 27.0049 12.1144 22.7743C6.09939 18.5848 2.75 11.691 2.75 2H0.25Z" fill="#4D4D4D"/>
</svg>
