<svg width="64" height="71" viewBox="0 0 64 71" fill="none" xmlns="http://www.w3.org/2000/svg">
<path d="M0.250769 69.4561C0.226561 70.1461 0.766236 70.725 1.45617 70.7492C2.1461 70.7734 2.72502 70.2337 2.74923 69.5438L0.250769 69.4561ZM62.8176 11.1897C63.3398 10.7382 63.3971 9.9488 62.9455 9.42659L55.5873 0.916646C55.1358 0.394434 54.3464 0.33714 53.8242 0.788677C53.302 1.24021 53.2447 2.02959 53.6962 2.55181L60.2369 10.1162L52.6725 16.6568C52.1503 17.1084 52.093 17.8978 52.5445 18.42C52.996 18.9422 53.7854 18.9995 54.3076 18.5479L62.8176 11.1897ZM2.74923 69.5438C3.07774 60.1813 5.77059 44.7286 14.4308 32.1042C23.0299 19.5688 37.5678 9.72415 61.9095 11.4909L62.0905 8.99745C36.8322 7.16418 21.4534 17.4474 12.3692 30.69C3.34607 43.8435 0.588925 59.8187 0.250769 69.4561L2.74923 69.5438Z" fill="#4D4D4D"/>
</svg>
